<?xml version="1.0" encoding="UTF-8" standalone="no"?>
<!DOCTYPE svg PUBLIC "-//W3C//DTD SVG 20010904//EN"
              "http://www.w3.org/TR/2001/REC-SVG-20010904/DTD/svg10.dtd">

<svg xmlns="http://www.w3.org/2000/svg"
     width="13.8889in" height="13.8889in"
     viewBox="0 0 1000 1000">
  <path id="Selection"
        fill="white"
        d="M 1000.00,659.00
           C 1000.00,661.69 1000.33,670.66 999.43,672.62
             998.29,675.11 993.38,677.57 991.00,679.00
             991.00,679.00 971.00,691.15 971.00,691.15
             971.00,691.15 894.00,737.20 894.00,737.20
             894.00,737.20 816.00,784.69 816.00,784.69
             816.00,784.69 782.00,807.81 782.00,807.81
             782.00,807.81 713.00,854.49 713.00,854.49
             713.00,854.49 642.00,902.49 642.00,902.49
             642.00,902.49 603.00,928.86 603.00,928.86
             603.00,928.86 550.00,964.81 550.00,964.81
             550.00,964.81 531.00,977.68 531.00,977.68
             521.33,985.28 516.79,1000.31 501.00,997.32
             491.29,995.48 471.00,979.85 462.00,973.66
             462.00,973.66 382.00,918.88 382.00,918.88
             382.00,918.88 175.00,777.19 175.00,777.19
             175.00,777.19 110.00,732.86 110.00,732.86
             110.00,732.86 90.00,719.28 90.00,719.28
             90.00,719.28 28.00,676.67 28.00,676.67
             19.22,670.78 3.90,662.53 0.65,652.00
             -0.11,649.55 0.00,646.56 0.00,644.00
             0.00,644.00 0.00,309.00 0.00,309.00
             0.01,303.63 0.34,297.79 3.09,293.00
             7.51,285.28 20.24,278.58 28.00,274.15
             28.00,274.15 62.00,254.32 62.00,254.32
             62.00,254.32 123.00,218.58 123.00,218.58
             123.00,218.58 213.00,165.45 213.00,165.45
             213.00,165.45 267.00,134.00 267.00,134.00
             267.00,134.00 436.00,34.99 436.00,34.99
             436.00,34.99 478.00,10.40 478.00,10.40
             484.67,6.44 492.84,0.53 501.00,1.34
             508.90,2.12 517.24,8.15 524.00,12.20
             524.00,12.20 562.00,34.60 562.00,34.60
             562.00,34.60 646.00,84.01 646.00,84.01
             646.00,84.01 696.00,113.58 696.00,113.58
             696.00,113.58 749.00,144.99 749.00,144.99
             749.00,144.99 857.00,208.45 857.00,208.45
             857.00,208.45 927.00,249.85 927.00,249.85
             927.00,249.85 965.00,272.40 965.00,272.40
             971.14,276.06 984.14,282.87 988.82,287.32
             995.84,294.01 998.99,304.60 999.00,314.00
             999.00,314.00 999.00,346.00 999.00,346.00
             999.00,346.00 1000.00,361.00 1000.00,361.00
             1000.00,361.00 1000.00,569.00 1000.00,569.00
             1000.00,569.00 1000.00,629.00 1000.00,629.00
             1000.00,639.11 1001.67,650.82 997.00,660.00
             997.00,660.00 1000.00,659.00 1000.00,659.00 Z
           M 934.00,303.00
           C 934.00,303.00 732.00,183.99 732.00,183.99
             732.00,183.99 608.00,110.72 608.00,110.72
             608.00,110.72 527.00,62.85 527.00,62.85
             527.00,62.85 508.00,51.72 508.00,51.72
             505.01,50.02 501.59,47.41 498.00,48.20
             495.69,48.71 489.48,52.74 487.00,54.14
             487.00,54.14 464.00,67.58 464.00,67.58
             464.00,67.58 382.00,115.72 382.00,115.72
             382.00,115.72 279.00,176.14 279.00,176.14
             279.00,176.14 157.00,247.55 157.00,247.55
             157.00,247.55 92.00,285.60 92.00,285.60
             84.49,290.10 68.15,298.11 63.00,304.00
             63.00,304.00 96.00,324.42 96.00,324.42
             96.00,324.42 169.00,369.06 169.00,369.06
             169.00,369.06 388.00,503.45 388.00,503.45
             388.00,503.45 450.00,541.42 450.00,541.42
             450.00,541.42 474.00,556.28 474.00,556.28
             474.00,556.28 495.00,569.05 495.00,569.05
             495.00,569.05 505.00,574.09 505.00,574.09
             505.00,574.09 515.00,569.31 515.00,569.31
             515.00,569.31 534.00,557.20 534.00,557.20
             534.00,557.20 569.00,535.05 569.00,535.05
             569.00,535.05 615.00,506.00 615.00,506.00
             615.00,506.00 695.00,455.58 695.00,455.58
             695.00,455.58 837.00,365.54 837.00,365.54
             837.00,365.54 902.00,324.42 902.00,324.42
             902.00,324.42 934.00,303.00 934.00,303.00 Z
           M 957.00,340.00
           C 957.00,340.00 918.00,363.78 918.00,363.78
             918.00,363.78 845.00,409.95 845.00,409.95
             845.00,409.95 767.00,459.05 767.00,459.05
             767.00,459.05 714.00,492.94 714.00,492.94
             714.00,492.94 623.00,550.34 623.00,550.34
             623.00,550.34 551.00,595.81 551.00,595.81
             551.00,595.81 529.02,611.18 529.02,611.18
             529.02,611.18 528.00,619.00 528.00,619.00
             528.00,619.00 528.00,643.00 528.00,643.00
             528.00,643.00 565.00,621.40 565.00,621.40
             565.00,621.40 636.00,578.80 636.00,578.80
             636.00,578.80 859.00,444.80 859.00,444.80
             859.00,444.80 934.00,399.80 934.00,399.80
             934.00,399.80 949.00,390.80 949.00,390.80
             949.00,390.80 955.98,385.62 955.98,385.62
             955.98,385.62 957.00,378.00 957.00,378.00
             957.00,378.00 957.00,340.00 957.00,340.00 Z
           M 43.09,341.00
           C 41.91,343.74 41.56,347.00 43.09,349.67
             45.08,352.83 60.02,361.70 64.00,364.35
             64.00,364.35 142.00,417.00 142.00,417.00
             142.00,417.00 385.00,580.08 385.00,580.08
             385.00,580.08 403.00,592.65 403.00,592.65
             403.00,592.65 451.00,624.72 451.00,624.72
             451.00,624.72 473.00,639.67 473.00,639.67
             477.38,642.59 480.87,645.61 486.00,647.00
             486.00,647.00 486.00,621.00 486.00,621.00
             486.00,621.00 484.98,613.21 484.98,613.21
             484.98,613.21 478.00,607.68 478.00,607.68
             478.00,607.68 461.00,597.20 461.00,597.20
             461.00,597.20 380.00,547.58 380.00,547.58
             380.00,547.58 159.00,412.19 159.00,412.19
             159.00,412.19 43.09,341.00 43.09,341.00 Z
           M 43.00,364.00
           C 41.06,368.88 41.99,388.54 42.00,395.00
             42.00,397.37 41.78,400.61 43.02,402.68
             44.85,405.73 60.09,414.93 64.00,417.43
             64.00,417.43 130.00,462.00 130.00,462.00
             130.00,462.00 241.00,536.66 241.00,536.66
             241.00,536.66 263.00,551.03 263.00,551.03
             263.00,551.03 385.00,633.08 385.00,633.08
             385.00,633.08 403.00,645.66 403.00,645.66
             403.00,645.66 452.00,678.50 452.00,678.50
             459.40,683.54 478.76,697.69 486.00,700.00
             486.00,700.00 486.00,670.00 486.00,670.00
             486.00,670.00 484.98,662.18 484.98,662.18
             484.98,662.18 477.00,655.67 477.00,655.67
             477.00,655.67 460.00,644.31 460.00,644.31
             460.00,644.31 440.00,630.67 440.00,630.67
             440.00,630.67 382.00,591.81 382.00,591.81
             382.00,591.81 163.00,444.66 163.00,444.66
             163.00,444.66 76.00,386.31 76.00,386.31
             76.00,386.31 43.00,364.00 43.00,364.00 Z
           M 957.00,401.00
           C 957.00,401.00 929.00,417.15 929.00,417.15
             929.00,417.15 856.00,460.99 856.00,460.99
             856.00,460.99 624.00,600.20 624.00,600.20
             624.00,600.20 551.00,644.20 551.00,644.20
             551.00,644.20 536.00,653.20 536.00,653.20
             536.00,653.20 529.02,658.38 529.02,658.38
             529.02,658.38 528.00,666.00 528.00,666.00
             528.00,666.00 528.00,696.00 528.00,696.00
             528.00,696.00 564.00,675.00 564.00,675.00
             564.00,675.00 635.00,632.40 635.00,632.40
             635.00,632.40 860.00,497.20 860.00,497.20
             860.00,497.20 934.00,452.80 934.00,452.80
             934.00,452.80 949.00,443.80 949.00,443.80
             949.00,443.80 955.98,438.62 955.98,438.62
             955.98,438.62 957.00,431.00 957.00,431.00
             957.00,431.00 957.00,401.00 957.00,401.00 Z
           M 43.00,417.00
           C 43.00,417.00 42.00,443.00 42.00,443.00
             42.00,443.00 43.02,450.82 43.02,450.82
             43.02,450.82 65.00,466.51 65.00,466.51
             65.00,466.51 134.00,513.02 134.00,513.02
             134.00,513.02 263.00,599.51 263.00,599.51
             263.00,599.51 373.00,673.67 373.00,673.67
             373.00,673.67 443.00,720.72 443.00,720.72
             443.00,720.72 486.00,749.00 486.00,749.00
             486.00,749.00 486.00,723.00 486.00,723.00
             486.00,723.00 484.98,715.18 484.98,715.18
             484.98,715.18 477.00,708.67 477.00,708.67
             477.00,708.67 461.00,697.81 461.00,697.81
             461.00,697.81 429.00,676.33 429.00,676.33
             429.00,676.33 385.00,646.86 385.00,646.86
             385.00,646.86 328.00,608.66 328.00,608.66
             328.00,608.66 163.00,497.65 163.00,497.65
             163.00,497.65 77.00,439.92 77.00,439.92
             77.00,439.92 43.00,417.00 43.00,417.00 Z
           M 956.90,454.00
           C 956.90,454.00 920.00,475.40 920.00,475.40
             920.00,475.40 850.00,517.55 850.00,517.55
             850.00,517.55 625.00,652.60 625.00,652.60
             625.00,652.60 551.00,697.20 551.00,697.20
             551.00,697.20 536.00,706.20 536.00,706.20
             536.00,706.20 529.02,711.38 529.02,711.38
             529.02,711.38 528.00,719.00 528.00,719.00
             528.00,719.00 528.00,744.00 528.00,744.00
             528.00,744.00 563.00,724.00 563.00,724.00
             563.00,724.00 634.00,681.40 634.00,681.40
             634.00,681.40 863.00,543.80 863.00,543.80
             863.00,543.80 933.00,501.80 933.00,501.80
             933.00,501.80 950.00,491.60 950.00,491.60
             950.00,491.60 956.90,485.90 956.90,485.90
             956.90,485.90 956.90,476.00 956.90,476.00
             956.90,476.00 956.90,454.00 956.90,454.00 Z
           M 43.00,465.00
           C 43.00,465.00 41.00,489.00 41.00,489.00
             40.97,491.96 40.66,497.39 42.02,499.91
             44.26,504.03 59.32,512.58 64.00,515.74
             64.00,515.74 133.00,562.33 133.00,562.33
             133.00,562.33 376.00,725.67 376.00,725.67
             376.00,725.67 450.00,775.50 450.00,775.50
             450.00,775.50 486.00,799.00 486.00,799.00
             486.00,799.00 486.00,772.00 486.00,772.00
             486.00,772.00 484.83,763.32 484.83,763.32
             484.83,763.32 477.00,757.00 477.00,757.00
             477.00,757.00 460.00,745.59 460.00,745.59
             460.00,745.59 417.00,716.67 417.00,716.67
             417.00,716.67 383.00,693.86 383.00,693.86
             383.00,693.86 339.00,664.49 339.00,664.49
             339.00,664.49 297.00,635.74 297.00,635.74
             297.00,635.74 274.00,620.66 274.00,620.66
             274.00,620.66 74.00,486.33 74.00,486.33
             74.00,486.33 43.00,465.00 43.00,465.00 Z
           M 958.00,502.00
           C 958.00,502.00 922.00,522.60 922.00,522.60
             922.00,522.60 849.00,566.55 849.00,566.55
             849.00,566.55 623.00,702.20 623.00,702.20
             623.00,702.20 551.00,745.60 551.00,745.60
             546.63,748.22 531.05,756.64 529.02,760.18
             527.80,762.33 528.00,765.57 528.00,768.00
             528.00,768.00 528.00,794.00 528.00,794.00
             528.00,794.00 564.00,773.40 564.00,773.40
             564.00,773.40 635.00,730.80 635.00,730.80
             635.00,730.80 863.00,593.80 863.00,593.80
             863.00,593.80 935.00,550.60 935.00,550.60
             935.00,550.60 950.00,541.60 950.00,541.60
             950.00,541.60 957.01,536.47 957.01,536.47
             957.01,536.47 958.00,529.00 958.00,529.00
             958.00,529.00 958.00,502.00 958.00,502.00 Z
           M 486.00,848.00
           C 486.00,848.00 486.00,822.00 486.00,822.00
             486.00,819.31 486.24,815.68 484.83,813.32
             482.93,810.17 466.16,799.77 462.00,797.00
             462.00,797.00 389.00,748.00 389.00,748.00
             389.00,748.00 147.00,585.33 147.00,585.33
             147.00,585.33 76.00,537.65 76.00,537.65
             67.99,532.30 48.74,517.46 41.00,515.00
             41.00,515.00 41.00,541.00 41.00,541.00
             41.00,541.00 42.17,549.62 42.17,549.62
             42.17,549.62 65.00,565.67 65.00,565.67
             65.00,565.67 140.00,616.33 140.00,616.33
             140.00,616.33 331.00,744.51 331.00,744.51
             331.00,744.51 385.00,780.69 385.00,780.69
             385.00,780.69 414.00,800.66 414.00,800.66
             414.00,800.66 450.00,824.72 450.00,824.72
             450.00,824.72 486.00,848.00 486.00,848.00 Z
           M 958.00,552.00
           C 951.64,554.01 935.12,565.06 928.00,569.15
             928.00,569.15 855.00,612.99 855.00,612.99
             855.00,612.99 623.00,752.20 623.00,752.20
             623.00,752.20 551.00,795.60 551.00,795.60
             546.63,798.22 531.05,806.64 529.02,810.18
             527.80,812.33 528.00,815.57 528.00,818.00
             528.00,818.00 528.00,843.00 528.00,843.00
             534.94,841.30 554.64,828.22 562.00,823.80
             562.00,823.80 633.00,781.20 633.00,781.20
             633.00,781.20 866.00,641.20 866.00,641.20
             866.00,641.20 936.00,599.20 936.00,599.20
             939.77,596.94 955.27,588.36 956.98,585.62
             958.22,583.63 958.00,580.31 958.00,578.00
             958.00,578.00 958.00,552.00 958.00,552.00 Z
           M 42.00,564.00
           C 42.00,564.00 41.00,592.00 41.00,592.00
             41.00,592.00 42.02,599.82 42.02,599.82
             42.02,599.82 63.00,614.69 63.00,614.69
             63.00,614.69 130.00,660.00 130.00,660.00
             130.00,660.00 221.00,721.26 221.00,721.26
             221.00,721.26 262.00,748.34 262.00,748.34
             262.00,748.34 385.00,831.08 385.00,831.08
             385.00,831.08 403.00,843.65 403.00,843.65
             403.00,843.65 451.00,875.72 451.00,875.72
             451.00,875.72 473.00,890.67 473.00,890.67
             473.00,890.67 486.00,898.00 486.00,898.00
             486.00,898.00 486.00,871.00 486.00,871.00
             486.00,871.00 484.98,863.09 484.98,863.09
             484.98,863.09 477.00,856.28 477.00,856.28
             477.00,856.28 460.00,844.81 460.00,844.81
             460.00,844.81 436.00,828.67 436.00,828.67
             436.00,828.67 383.00,792.98 383.00,792.98
             383.00,792.98 339.00,763.66 339.00,763.66
             339.00,763.66 176.00,653.97 176.00,653.97
             176.00,653.97 75.00,586.14 75.00,586.14
             75.00,586.14 42.00,564.00 42.00,564.00 Z
           M 958.00,601.00
           C 958.00,601.00 930.00,617.15 930.00,617.15
             930.00,617.15 857.00,660.99 857.00,660.99
             857.00,660.99 625.00,800.20 625.00,800.20
             625.00,800.20 551.00,844.80 551.00,844.80
             551.00,844.80 529.02,859.21 529.02,859.21
             529.02,859.21 528.00,867.00 528.00,867.00
             528.00,867.00 528.00,894.00 528.00,894.00
             528.00,894.00 565.00,872.40 565.00,872.40
             565.00,872.40 637.00,829.20 637.00,829.20
             637.00,829.20 861.00,694.60 861.00,694.60
             861.00,694.60 935.00,650.20 935.00,650.20
             935.00,650.20 956.98,635.79 956.98,635.79
             956.98,635.79 958.00,628.00 958.00,628.00
             958.00,628.00 958.00,601.00 958.00,601.00 Z
           M 42.00,614.00
           C 40.68,617.32 40.14,631.56 42.00,634.48
             43.26,636.47 57.83,645.87 61.00,648.14
             61.00,648.14 98.00,673.34 98.00,673.34
             98.00,673.34 138.00,700.97 138.00,700.97
             138.00,700.97 260.00,784.19 260.00,784.19
             260.00,784.19 376.00,863.51 376.00,863.51
             376.00,863.51 423.00,895.98 423.00,895.98
             423.00,895.98 443.00,909.42 443.00,909.42
             443.00,909.42 467.00,925.88 467.00,925.88
             472.09,929.39 480.66,935.74 486.00,938.00
             486.00,938.00 486.00,921.00 486.00,921.00
             486.00,921.00 484.98,913.18 484.98,913.18
             484.98,913.18 477.00,906.67 477.00,906.67
             477.00,906.67 460.00,895.31 460.00,895.31
             460.00,895.31 405.00,858.03 405.00,858.03
             405.00,858.03 381.00,842.12 381.00,842.12
             381.00,842.12 329.00,807.33 329.00,807.33
             329.00,807.33 231.00,741.33 231.00,741.33
             231.00,741.33 75.00,636.65 75.00,636.65
             75.00,636.65 42.00,614.00 42.00,614.00 Z
           M 768.00,765.00
           C 768.00,765.00 767.00,765.00 767.00,765.00
             767.00,765.00 768.00,766.00 768.00,766.00
             768.00,766.00 768.00,765.00 768.00,765.00 Z
           M 767.00,766.00
           C 767.00,766.00 766.00,766.00 766.00,766.00
             766.00,766.00 767.00,767.00 767.00,767.00
             767.00,767.00 767.00,766.00 767.00,766.00 Z
           M 765.00,767.00
           C 765.00,767.00 764.00,767.00 764.00,767.00
             764.00,767.00 765.00,768.00 765.00,768.00
             765.00,768.00 765.00,767.00 765.00,767.00 Z
           M 762.00,769.00
           C 762.00,769.00 761.00,769.00 761.00,769.00
             761.00,769.00 762.00,770.00 762.00,770.00
             762.00,770.00 762.00,769.00 762.00,769.00 Z
           M 761.00,770.00
           C 754.90,771.93 745.81,778.11 740.00,781.60
             740.00,781.60 703.00,803.80 703.00,803.80
             703.00,803.80 580.00,877.72 580.00,877.72
             580.00,877.72 541.00,901.20 541.00,901.20
             534.24,905.25 528.16,906.47 528.00,915.00
             528.00,915.00 528.00,928.00 528.00,928.00
             528.00,928.00 582.00,891.88 582.00,891.88
             582.00,891.88 634.00,856.97 634.00,856.97
             634.00,856.97 669.00,833.00 669.00,833.00
             669.00,833.00 728.00,793.00 728.00,793.00
             728.00,793.00 761.00,770.00 761.00,770.00 Z" />
</svg>
