<?xml version="1.0" encoding="UTF-8" standalone="no"?>
<!DOCTYPE svg PUBLIC "-//W3C//DTD SVG 20010904//EN"
        "http://www.w3.org/TR/2001/REC-SVG-20010904/DTD/svg10.dtd">

<svg xmlns="http://www.w3.org/2000/svg"
     width="13.8889in" height="13.8889in"
     viewBox="0 0 1000 1000">
    <path id="Selection"
          fill="none" stroke="black" stroke-width="1"
          d="M 71.00,285.55
           C 71.00,285.55 105.00,265.08 105.00,265.08
             105.00,265.08 190.00,214.08 190.00,214.08
             190.00,214.08 312.00,140.80 312.00,140.80
             312.00,140.80 377.00,101.67 377.00,101.67
             377.00,101.67 385.00,96.46 385.00,96.46
             385.00,96.46 399.00,88.55 399.00,88.55
             399.00,88.55 420.00,75.45 420.00,75.45
             420.00,75.45 463.00,50.08 463.00,50.08
             463.00,50.08 484.00,37.31 484.00,37.31
             487.15,35.30 492.21,31.34 496.00,31.48
             499.30,31.61 507.05,36.44 510.00,38.34
             510.00,38.34 533.00,52.19 533.00,52.19
             533.00,52.19 623.00,106.08 623.00,106.08
             623.00,106.08 652.00,122.86 652.00,122.86
             652.00,122.86 676.00,137.69 676.00,137.69
             676.00,137.69 768.00,192.55 768.00,192.55
             768.00,192.55 812.00,218.46 812.00,218.46
             812.00,218.46 901.00,271.60 901.00,271.60
             901.00,271.60 952.00,302.00 952.00,302.00
             952.00,302.00 952.00,304.00 952.00,304.00
             952.00,304.00 906.00,331.55 906.00,331.55
             906.00,331.55 784.00,404.55 784.00,404.55
             784.00,404.55 664.00,476.54 664.00,476.54
             664.00,476.54 633.00,494.54 633.00,494.54
             633.00,494.54 563.00,536.45 563.00,536.45
             563.00,536.45 538.00,551.85 538.00,551.85
             538.00,551.85 514.00,565.87 514.00,565.87
             514.00,565.87 503.00,571.81 503.00,571.81
             503.00,571.81 493.00,567.69 493.00,567.69
             493.00,567.69 483.00,561.45 483.00,561.45
             483.00,561.45 469.00,553.31 469.00,553.31
             469.00,553.31 417.00,522.55 417.00,522.55
             417.00,522.55 388.00,504.87 388.00,504.87
             388.00,504.87 275.00,437.92 275.00,437.92
             275.00,437.92 245.00,420.54 245.00,420.54
             245.00,420.54 161.00,370.45 161.00,370.45
             161.00,370.45 85.00,325.45 85.00,325.45
             85.00,325.45 45.00,301.00 45.00,301.00
             45.00,301.00 71.00,285.55 71.00,285.55 Z
           M 58.00,360.69
           C 58.00,360.69 153.00,417.08 153.00,417.08
             153.00,417.08 222.00,457.45 222.00,457.45
             222.00,457.45 324.00,518.40 324.00,518.40
             324.00,518.40 381.00,551.94 381.00,551.94
             381.00,551.94 411.00,569.45 411.00,569.45
             411.00,569.45 456.00,596.55 456.00,596.55
             456.00,596.55 474.00,607.31 474.00,607.31
             474.00,607.31 480.98,612.39 480.98,612.39
             480.98,612.39 482.00,625.00 482.00,625.00
             482.00,625.00 481.04,637.00 481.04,637.00
             481.04,637.00 481.04,650.00 481.04,650.00
             481.04,650.00 445.00,629.20 445.00,629.20
             445.00,629.20 378.00,588.86 378.00,588.86
             378.00,588.86 180.00,470.27 180.00,470.27
             180.00,470.27 127.00,438.28 127.00,438.28
             127.00,438.28 47.00,390.28 47.00,390.28
             47.00,390.28 30.00,380.05 30.00,380.05
             30.00,380.05 23.02,374.67 23.02,374.67
             23.02,374.67 22.00,367.00 22.00,367.00
             22.00,367.00 22.00,340.00 22.00,340.00
             22.00,340.00 58.00,360.69 58.00,360.69 Z
           M 974.00,373.00
           C 974.00,375.23 974.24,378.57 973.01,380.47
             971.71,382.47 968.07,384.20 966.00,385.45
             966.00,385.45 952.00,393.94 952.00,393.94
             952.00,393.94 880.00,437.15 880.00,437.15
             880.00,437.15 824.00,470.86 824.00,470.86
             824.00,470.86 626.00,589.45 626.00,589.45
             626.00,589.45 560.00,629.20 560.00,629.20
             560.00,629.20 525.00,650.00 525.00,650.00
             525.00,650.00 525.00,634.00 525.00,634.00
             525.00,634.00 526.00,620.00 526.00,620.00
             526.00,620.00 527.02,610.21 527.02,610.21
             527.02,610.21 536.00,604.13 536.00,604.13
             536.00,604.13 554.00,593.28 554.00,593.28
             554.00,593.28 608.00,561.08 608.00,561.08
             608.00,561.08 640.00,541.77 640.00,541.77
             640.00,541.77 668.00,524.81 668.00,524.81
             668.00,524.81 697.00,507.80 697.00,507.80
             697.00,507.80 720.00,493.45 720.00,493.45
             720.00,493.45 827.00,429.60 827.00,429.60
             827.00,429.60 929.00,368.45 929.00,368.45
             929.00,368.45 950.00,355.87 950.00,355.87
             950.00,355.87 973.00,342.00 973.00,342.00
             974.94,346.88 974.01,366.53 974.00,373.00 Z
           M 63.00,416.55
           C 63.00,416.55 148.00,467.55 148.00,467.55
             148.00,467.55 374.00,603.27 374.00,603.27
             374.00,603.27 456.00,652.40 456.00,652.40
             456.00,652.40 472.00,662.00 472.00,662.00
             472.00,662.00 479.98,668.18 479.98,668.18
             479.98,668.18 480.96,676.00 480.96,676.00
             480.96,676.00 480.96,694.00 480.96,694.00
             480.96,694.00 480.00,703.00 480.00,703.00
             480.00,703.00 440.00,679.20 440.00,679.20
             440.00,679.20 365.00,634.14 365.00,634.14
             365.00,634.14 239.00,558.45 239.00,558.45
             239.00,558.45 127.00,491.32 127.00,491.32
             127.00,491.32 46.00,442.68 46.00,442.68
             46.00,442.68 23.02,427.68 23.02,427.68
             23.02,427.68 22.00,420.00 22.00,420.00
             22.00,420.00 22.00,392.00 22.00,392.00
             22.00,392.00 63.00,416.55 63.00,416.55 Z
           M 525.00,675.00
           C 525.00,675.00 526.02,667.33 526.02,667.33
             526.02,667.33 533.00,662.00 533.00,662.00
             533.00,662.00 549.00,652.40 549.00,652.40
             549.00,652.40 625.00,606.73 625.00,606.73
             625.00,606.73 857.00,467.55 857.00,467.55
             857.00,467.55 932.00,422.55 932.00,422.55
             932.00,422.55 974.00,398.00 974.00,398.00
             974.00,398.00 974.00,426.00 974.00,426.00
             974.00,426.00 973.01,433.39 973.01,433.39
             973.01,433.39 950.00,448.06 950.00,448.06
             950.00,448.06 873.00,494.28 873.00,494.28
             873.00,494.28 791.00,543.55 791.00,543.55
             791.00,543.55 631.00,639.45 631.00,639.45
             631.00,639.45 563.00,680.42 563.00,680.42
             563.00,680.42 524.00,703.00 524.00,703.00
             524.00,703.00 525.00,675.00 525.00,675.00 Z
           M 57.00,465.94
           C 57.00,465.94 98.00,490.55 98.00,490.55
             98.00,490.55 268.00,592.45 268.00,592.45
             268.00,592.45 371.00,654.44 371.00,654.44
             371.00,654.44 454.00,704.20 454.00,704.20
             454.00,704.20 471.00,714.42 471.00,714.42
             471.00,714.42 478.98,720.38 478.98,720.38
             478.98,720.38 480.00,728.00 480.00,728.00
             480.00,728.00 480.00,751.00 480.00,751.00
             480.00,751.00 442.00,728.81 442.00,728.81
             442.00,728.81 374.00,687.86 374.00,687.86
             374.00,687.86 125.00,538.45 125.00,538.45
             125.00,538.45 46.00,491.06 46.00,491.06
             46.00,491.06 22.99,476.39 22.99,476.39
             22.99,476.39 22.00,469.00 22.00,469.00
             22.00,469.00 22.00,445.00 22.00,445.00
             22.00,445.00 57.00,465.94 57.00,465.94 Z
           M 524.00,728.00
           C 524.00,728.00 524.99,720.63 524.99,720.63
             524.99,720.63 532.00,715.68 532.00,715.68
             532.00,715.68 548.00,706.00 548.00,706.00
             548.00,706.00 626.00,659.14 626.00,659.14
             626.00,659.14 737.00,592.45 737.00,592.45
             737.00,592.45 862.00,517.55 862.00,517.55
             862.00,517.55 937.00,472.55 937.00,472.55
             937.00,472.55 974.00,451.00 974.00,451.00
             974.00,451.00 974.00,474.00 974.00,474.00
             974.00,474.00 972.98,481.62 972.98,481.62
             972.98,481.62 966.00,486.94 966.00,486.94
             966.00,486.94 949.00,497.06 949.00,497.06
             949.00,497.06 870.00,544.45 870.00,544.45
             870.00,544.45 630.00,688.45 630.00,688.45
             630.00,688.45 563.00,728.81 563.00,728.81
             563.00,728.81 524.00,752.00 524.00,752.00
             524.00,752.00 524.00,728.00 524.00,728.00 Z
           M 60.00,516.14
           C 60.00,516.14 144.00,566.55 144.00,566.55
             144.00,566.55 376.00,705.73 376.00,705.73
             376.00,705.73 455.00,753.20 455.00,753.20
             455.00,753.20 477.98,768.32 477.98,768.32
             477.98,768.32 479.00,776.00 479.00,776.00
             479.00,776.00 479.00,800.00 479.00,800.00
             479.00,800.00 445.00,780.60 445.00,780.60
             445.00,780.60 371.00,736.14 371.00,736.14
             371.00,736.14 225.00,648.45 225.00,648.45
             225.00,648.45 150.00,603.45 150.00,603.45
             150.00,603.45 121.00,586.14 121.00,586.14
             121.00,586.14 95.00,570.55 95.00,570.55
             95.00,570.55 46.00,541.14 46.00,541.14
             46.00,541.14 30.00,531.42 30.00,531.42
             30.00,531.42 22.99,526.39 22.99,526.39
             22.99,526.39 22.00,519.00 22.00,519.00
             22.00,519.00 22.00,494.00 22.00,494.00
             22.00,494.00 60.00,516.14 60.00,516.14 Z
           M 974.00,524.00
           C 974.00,524.00 972.98,531.67 972.98,531.67
             972.98,531.67 952.00,545.32 952.00,545.32
             952.00,545.32 880.00,588.58 880.00,588.58
             880.00,588.58 824.00,622.27 824.00,622.27
             824.00,622.27 633.00,736.73 633.00,736.73
             633.00,736.73 560.00,780.60 560.00,780.60
             560.00,780.60 523.00,802.00 523.00,802.00
             523.00,802.00 523.00,777.00 523.00,777.00
             523.00,777.00 523.99,769.63 523.99,769.63
             523.99,769.63 531.00,764.68 531.00,764.68
             531.00,764.68 549.00,753.80 549.00,753.80
             549.00,753.80 633.00,703.44 633.00,703.44
             633.00,703.44 690.00,669.20 690.00,669.20
             690.00,669.20 826.00,587.40 826.00,587.40
             826.00,587.40 921.00,530.45 921.00,530.45
             921.00,530.45 973.00,499.00 973.00,499.00
             973.00,499.00 974.00,524.00 974.00,524.00 Z
           M 64.00,568.55
           C 64.00,568.55 148.00,618.94 148.00,618.94
             148.00,618.94 244.00,676.45 244.00,676.45
             244.00,676.45 375.00,755.27 375.00,755.27
             375.00,755.27 455.00,803.20 455.00,803.20
             455.00,803.20 471.00,812.80 471.00,812.80
             471.00,812.80 477.98,818.21 477.98,818.21
             477.98,818.21 478.99,826.00 478.99,826.00
             478.99,826.00 478.04,835.00 478.04,835.00
             478.04,835.00 478.04,849.00 478.04,849.00
             478.04,849.00 444.00,829.20 444.00,829.20
             444.00,829.20 377.00,788.86 377.00,788.86
             377.00,788.86 179.00,670.27 179.00,670.27
             179.00,670.27 127.00,638.86 127.00,638.86
             127.00,638.86 47.00,590.86 47.00,590.86
             47.00,590.86 30.00,580.68 30.00,580.68
             30.00,580.68 22.99,575.47 22.99,575.47
             22.99,575.47 22.00,568.00 22.00,568.00
             22.00,568.00 22.00,544.00 22.00,544.00
             22.00,544.00 64.00,568.55 64.00,568.55 Z
           M 974.00,573.00
           C 974.00,573.00 972.98,580.79 972.98,580.79
             972.98,580.79 966.00,586.06 966.00,586.06
             966.00,586.06 951.00,595.14 951.00,595.14
             951.00,595.14 879.00,638.28 879.00,638.28
             879.00,638.28 825.00,670.86 825.00,670.86
             825.00,670.86 627.00,789.45 627.00,789.45
             627.00,789.45 560.00,829.81 560.00,829.81
             560.00,829.81 522.00,852.00 522.00,852.00
             522.00,852.00 522.00,833.00 522.00,833.00
             522.00,833.00 523.98,820.18 523.98,820.18
             523.98,820.18 532.00,814.00 532.00,814.00
             532.00,814.00 549.00,803.80 549.00,803.80
             549.00,803.80 630.00,755.27 630.00,755.27
             630.00,755.27 869.00,611.45 869.00,611.45
             869.00,611.45 936.00,571.45 936.00,571.45
             936.00,571.45 973.00,549.00 973.00,549.00
             973.00,549.00 974.00,573.00 974.00,573.00 Z
           M 62.00,616.55
           C 62.00,616.55 147.00,667.55 147.00,667.55
             147.00,667.55 373.00,803.27 373.00,803.27
             373.00,803.27 453.00,851.20 453.00,851.20
             453.00,851.20 469.00,860.80 469.00,860.80
             469.00,860.80 477.01,866.53 477.01,866.53
             477.01,866.53 478.00,874.00 478.00,874.00
             478.00,874.00 478.00,899.00 478.00,899.00
             478.00,899.00 444.00,879.60 444.00,879.60
             444.00,879.60 370.00,835.14 370.00,835.14
             370.00,835.14 254.00,765.45 254.00,765.45
             254.00,765.45 122.00,686.39 122.00,686.39
             122.00,686.39 46.00,640.72 46.00,640.72
             46.00,640.72 30.00,631.05 30.00,631.05
             30.00,631.05 23.02,625.67 23.02,625.67
             23.02,625.67 22.00,618.00 22.00,618.00
             22.00,618.00 22.00,593.00 22.00,593.00
             22.00,593.00 62.00,616.55 62.00,616.55 Z
           M 974.00,624.00
           C 974.00,624.00 973.01,631.47 973.01,631.47
             973.01,631.47 966.00,636.45 966.00,636.45
             966.00,636.45 952.00,644.94 952.00,644.94
             952.00,644.94 880.00,688.15 880.00,688.15
             880.00,688.15 824.00,721.86 824.00,721.86
             824.00,721.86 626.00,840.45 626.00,840.45
             626.00,840.45 559.00,880.81 559.00,880.81
             559.00,880.81 521.00,903.00 521.00,903.00
             521.00,903.00 521.96,890.00 521.96,890.00
             521.96,890.00 521.96,877.00 521.96,877.00
             521.96,877.00 522.99,869.61 522.99,869.61
             522.99,869.61 531.00,863.81 531.00,863.81
             531.00,863.81 548.00,853.60 548.00,853.60
             548.00,853.60 631.00,803.86 631.00,803.86
             631.00,803.86 743.00,736.45 743.00,736.45
             743.00,736.45 870.00,660.06 870.00,660.06
             870.00,660.06 938.00,619.45 938.00,619.45
             938.00,619.45 973.00,598.00 973.00,598.00
             973.00,598.00 974.00,624.00 974.00,624.00 Z
           M 62.00,666.94
           C 62.00,666.94 103.00,691.55 103.00,691.55
             103.00,691.55 273.00,793.45 273.00,793.45
             273.00,793.45 368.00,850.72 368.00,850.72
             368.00,850.72 451.00,900.40 451.00,900.40
             451.00,900.40 468.00,910.60 468.00,910.60
             468.00,910.60 475.98,916.38 475.98,916.38
             475.98,916.38 477.00,924.00 477.00,924.00
             477.00,924.00 477.00,946.00 477.00,946.00
             477.00,946.00 443.00,926.60 443.00,926.60
             443.00,926.60 370.00,882.73 370.00,882.73
             370.00,882.73 179.00,768.27 179.00,768.27
             179.00,768.27 123.00,734.58 123.00,734.58
             123.00,734.58 46.00,688.28 46.00,688.28
             46.00,688.28 30.00,678.68 30.00,678.68
             30.00,678.68 22.99,673.47 22.99,673.47
             22.99,673.47 22.00,666.00 22.00,666.00
             22.00,666.00 22.00,643.00 22.00,643.00
             22.00,643.00 62.00,666.94 62.00,666.94 Z
           M 521.00,928.00
           C 521.00,928.00 521.99,920.61 521.99,920.61
             521.99,920.61 529.00,915.42 529.00,915.42
             529.00,915.42 545.00,905.80 545.00,905.80
             545.00,905.80 623.00,858.95 623.00,858.95
             623.00,858.95 857.00,718.55 857.00,718.55
             857.00,718.55 932.00,673.55 932.00,673.55
             932.00,673.55 974.00,649.00 974.00,649.00
             974.00,649.00 974.00,671.00 974.00,671.00
             974.00,671.00 972.98,678.79 972.98,678.79
             972.98,678.79 966.00,684.06 966.00,684.06
             966.00,684.06 949.00,694.28 949.00,694.28
             949.00,694.28 868.00,742.86 868.00,742.86
             868.00,742.86 826.00,768.27 826.00,768.27
             826.00,768.27 627.00,887.45 627.00,887.45
             627.00,887.45 560.00,927.81 560.00,927.81
             560.00,927.81 521.00,951.00 521.00,951.00
             521.00,951.00 521.00,928.00 521.00,928.00 Z" />
</svg>